<svg width="25" height="24" viewBox="0 0 25 24" fill="none" xmlns="http://www.w3.org/2000/svg">
<mask id="mask0_18_2179" style="mask-type:alpha" maskUnits="userSpaceOnUse" x="0" y="0" width="25" height="24">
<rect x="0.333008" width="24" height="24" fill="#D9D9D9"/>
</mask>
<g mask="url(#mask0_18_2179)">
<path d="M15.5834 5.13729C15.1975 5.13729 14.8698 5.00254 14.6001 4.73304C14.3306 4.46337 14.1959 4.13562 14.1959 3.74979C14.1959 3.36395 14.3306 3.0362 14.6001 2.76654C14.8698 2.49704 15.1975 2.36229 15.5834 2.36229C15.9692 2.36229 16.297 2.49704 16.5666 2.76654C16.8361 3.0362 16.9709 3.36395 16.9709 3.74979C16.9709 4.13562 16.8361 4.46337 16.5666 4.73304C16.297 5.00254 15.9692 5.13729 15.5834 5.13729ZM15.5834 21.6373C15.1975 21.6373 14.8698 21.5025 14.6001 21.233C14.3306 20.9634 14.1959 20.6356 14.1959 20.2498C14.1959 19.864 14.3306 19.5362 14.6001 19.2665C14.8698 18.997 15.1975 18.8623 15.5834 18.8623C15.9692 18.8623 16.297 18.997 16.5666 19.2665C16.8361 19.5362 16.9709 19.864 16.9709 20.2498C16.9709 20.6356 16.8361 20.9634 16.5666 21.233C16.297 21.5025 15.9692 21.6373 15.5834 21.6373ZM19.5834 8.63729C19.1975 8.63729 18.8698 8.50254 18.6001 8.23304C18.3306 7.96337 18.1959 7.63562 18.1959 7.24979C18.1959 6.86395 18.3306 6.5362 18.6001 6.26654C18.8698 5.99704 19.1975 5.86229 19.5834 5.86229C19.9692 5.86229 20.297 5.99704 20.5666 6.26654C20.8361 6.5362 20.9709 6.86395 20.9709 7.24979C20.9709 7.63562 20.8361 7.96337 20.5666 8.23304C20.297 8.50254 19.9692 8.63729 19.5834 8.63729ZM19.5834 18.1373C19.1975 18.1373 18.8698 18.0025 18.6001 17.733C18.3306 17.4634 18.1959 17.1356 18.1959 16.7498C18.1959 16.364 18.3306 16.0362 18.6001 15.7665C18.8698 15.497 19.1975 15.3623 19.5834 15.3623C19.9692 15.3623 20.297 15.497 20.5666 15.7665C20.8361 16.0362 20.9709 16.364 20.9709 16.7498C20.9709 17.1356 20.8361 17.4634 20.5666 17.733C20.297 18.0025 19.9692 18.1373 19.5834 18.1373ZM21.0834 13.3873C20.6975 13.3873 20.3698 13.2525 20.1001 12.983C19.8306 12.7134 19.6959 12.3856 19.6959 11.9998C19.6959 11.614 19.8306 11.2862 20.1001 11.0165C20.3698 10.747 20.6975 10.6123 21.0834 10.6123C21.4692 10.6123 21.797 10.747 22.0666 11.0165C22.3361 11.2862 22.4709 11.614 22.4709 11.9998C22.4709 12.3856 22.3361 12.7134 22.0666 12.983C21.797 13.2525 21.4692 13.3873 21.0834 13.3873ZM2.21387 11.9998C2.21387 9.36712 3.0857 7.1002 4.82937 5.19903C6.57303 3.2977 8.71745 2.21212 11.2626 1.94229C11.5573 1.90495 11.8094 1.99504 12.0189 2.21254C12.2285 2.4302 12.3334 2.69862 12.3334 3.01779C12.3334 3.32029 12.2379 3.58545 12.0469 3.81329C11.856 4.04129 11.6133 4.17787 11.3186 4.22304C9.37378 4.47637 7.74928 5.33412 6.44512 6.79629C5.14095 8.25845 4.48887 9.99295 4.48887 11.9998C4.48887 14.0193 5.14095 15.757 6.44512 17.2128C7.74928 18.6686 9.37378 19.5232 11.3186 19.7765C11.6133 19.8217 11.856 19.9583 12.0469 20.1863C12.2379 20.4141 12.3334 20.6793 12.3334 20.9818C12.3334 21.301 12.2285 21.5694 12.0189 21.787C11.8094 22.0045 11.5573 22.0946 11.2626 22.0573C8.70478 21.7875 6.5572 20.7019 4.81987 18.8005C3.08253 16.8994 2.21387 14.6325 2.21387 11.9998ZM12.3334 14.1373C11.7435 14.1373 11.2398 13.9285 10.8221 13.511C10.4046 13.0934 10.1959 12.5896 10.1959 11.9998C10.1959 11.9245 10.199 11.845 10.2054 11.7613C10.2117 11.6775 10.2295 11.5979 10.2589 11.5225L8.93162 10.1955C8.72045 9.9842 8.61487 9.71995 8.61487 9.40279C8.61487 9.08562 8.72245 8.81937 8.93762 8.60404C9.14895 8.39287 9.4142 8.28729 9.73337 8.28729C10.0525 8.28729 10.3178 8.39287 10.5291 8.60404L11.8561 9.92529C11.9228 9.90862 12.0819 9.88762 12.3334 9.86229C12.9232 9.86229 13.427 10.071 13.8446 10.4885C14.2621 10.9062 14.4709 11.41 14.4709 11.9998C14.4709 12.5896 14.2621 13.0934 13.8446 13.511C13.427 13.9285 12.9232 14.1373 12.3334 14.1373Z" fill="#8BC34A"/>
</g>
</svg>
