<svg width="40" height="40" viewBox="0 0 40 40" fill="none" xmlns="http://www.w3.org/2000/svg">
<mask id="mask0_18_2223" style="mask-type:alpha" maskUnits="userSpaceOnUse" x="0" y="0" width="40" height="40">
<rect width="40" height="40" fill="#D9D9D9"/>
</mask>
<g mask="url(#mask0_18_2223)">
<path d="M27.9641 34.1441C27.7638 34.1441 27.5638 34.1199 27.3641 34.0716C27.1641 34.023 26.9766 33.9381 26.8016 33.817L22.3466 31.2211C21.9938 31.0189 21.7228 30.7473 21.5337 30.4061C21.3448 30.065 21.2503 29.6924 21.2503 29.2882V24.0866C21.2503 23.6824 21.3448 23.3098 21.5337 22.9686C21.7228 22.6275 21.9938 22.3559 22.3466 22.1536L26.8016 19.5578C26.9769 19.4367 27.1646 19.3518 27.3649 19.3032C27.5652 19.2549 27.7655 19.2307 27.9657 19.2307C28.166 19.2307 28.3595 19.261 28.5462 19.3216C28.7325 19.3821 28.9128 19.4609 29.087 19.5578L33.542 22.1536C33.8959 22.3559 34.1739 22.6275 34.3762 22.9686C34.5787 23.3098 34.6799 23.6824 34.6799 24.0866V29.2882C34.6799 29.6924 34.5787 30.065 34.3762 30.4061C34.1739 30.7473 33.8959 31.0189 33.542 31.2211L29.087 33.8195C28.9139 33.9184 28.7335 33.9971 28.5457 34.0557C28.358 34.1146 28.1641 34.1441 27.9641 34.1441ZM6.69908 32.1795C5.99602 32.1795 5.39824 31.9332 4.90574 31.4407C4.41324 30.948 4.16699 30.3502 4.16699 29.6474V28.4741C4.16699 27.6324 4.38171 26.8702 4.81116 26.1874C5.2406 25.5046 5.84005 24.9763 6.60949 24.6024C8.14366 23.846 9.66713 23.2627 11.1799 22.8524C12.6927 22.4421 14.3081 22.2092 16.0262 22.1536C16.2303 22.1536 16.4091 22.198 16.5624 22.2866C16.7157 22.3752 16.8435 22.4955 16.9457 22.6474C17.0463 22.8032 17.1131 22.972 17.1462 23.1536C17.1792 23.3353 17.168 23.5266 17.1124 23.7274C16.9885 24.1918 16.8956 24.6621 16.8337 25.1382C16.7717 25.6143 16.7407 26.0861 16.7407 26.5536C16.7407 27.2545 16.807 27.9496 16.9395 28.6391C17.072 29.3282 17.2707 29.9923 17.5357 30.6311C17.6082 30.832 17.6364 31.0189 17.6203 31.192C17.6045 31.365 17.5463 31.5296 17.4457 31.6857C17.3455 31.8416 17.225 31.9628 17.0845 32.0495C16.9442 32.1361 16.7719 32.1795 16.5674 32.1795H6.69908ZM16.667 19.487C15.0628 19.487 13.6896 18.9159 12.5474 17.7736C11.4049 16.6311 10.8337 15.2578 10.8337 13.6536C10.8337 12.0495 11.4049 10.6763 12.5474 9.53406C13.6896 8.39156 15.0628 7.82031 16.667 7.82031C18.2712 7.82031 19.6444 8.39156 20.7866 9.53406C21.9291 10.6763 22.5003 12.0495 22.5003 13.6536C22.5003 15.2578 21.9291 16.6311 20.7866 17.7736C19.6444 18.9159 18.2712 19.487 16.667 19.487ZM24.1607 23.3395L27.9649 25.5511L31.7695 23.3395L27.9649 21.1536L24.1607 23.3395ZM28.9587 31.5895L32.6924 29.4332V24.8716L28.9587 27.0961V31.5895ZM23.2374 29.4391L26.9716 31.6311V27.1378L23.2374 24.9295V29.4391Z" fill="#0050FF"/>
</g>
</svg>
