<svg width="24" height="24" viewBox="0 0 24 24" fill="none" xmlns="http://www.w3.org/2000/svg">
<mask id="mask0_18_164" style="mask-type:alpha" maskUnits="userSpaceOnUse" x="0" y="0" width="24" height="24">
<rect width="24" height="24" fill="#D9D9D9"/>
</mask>
<g mask="url(#mask0_18_164)">
<path d="M12.0042 22.4126C10.0092 22.4126 8.38123 22.0967 7.12023 21.4649C5.85923 20.8332 5.22873 20.0176 5.22873 19.0181C5.22873 18.6376 5.31157 18.2921 5.47723 17.9816C5.64273 17.6711 5.90898 17.3813 6.27598 17.1121C6.54532 16.9375 6.8334 16.8778 7.14023 16.9331C7.44707 16.9883 7.68782 17.1505 7.86248 17.4196C8.03715 17.6888 8.09365 17.9769 8.03198 18.2839C7.97048 18.5907 7.80507 18.8315 7.53573 19.0061C7.78107 19.3078 8.34707 19.5718 9.23373 19.7981C10.1202 20.0245 11.0423 20.1376 12 20.1376C12.9577 20.1376 13.8807 20.0245 14.769 19.7981C15.6573 19.5718 16.2243 19.3078 16.47 19.0061C16.2008 18.8315 16.0355 18.5907 15.974 18.2839C15.9123 17.9769 15.9688 17.6888 16.1435 17.4196C16.3182 17.1505 16.5589 16.9883 16.8657 16.9331C17.1726 16.8778 17.4607 16.9375 17.73 17.1121C18.097 17.3813 18.3632 17.6711 18.5287 17.9816C18.6944 18.2921 18.7772 18.6376 18.7772 19.0181C18.7772 20.0176 18.1472 20.8332 16.887 21.4649C15.6268 22.0967 13.9992 22.4126 12.0042 22.4126ZM12.006 18.6686C11.7782 18.6686 11.5522 18.6313 11.3282 18.5566C11.1044 18.482 10.8992 18.37 10.7125 18.2209C8.72198 16.6342 7.2394 15.0843 6.26473 13.5711C5.29007 12.058 4.80273 10.5743 4.80273 9.12013C4.80273 7.91296 5.0214 6.85213 5.45873 5.93763C5.89607 5.02313 6.45773 4.25821 7.14373 3.64288C7.82973 3.02754 8.60148 2.56604 9.45898 2.25838C10.3163 1.95071 11.1649 1.79688 12.0047 1.79688C12.8446 1.79688 13.693 1.95071 14.55 2.25838C15.407 2.56604 16.1782 3.02754 16.8637 3.64288C17.5492 4.25821 18.1106 5.02313 18.5477 5.93763C18.9847 6.85213 19.2032 7.91296 19.2032 9.12013C19.2032 10.5716 18.7149 12.0526 17.7382 13.5631C16.7616 15.0736 15.282 16.6242 13.2995 18.2149C13.1128 18.366 12.9076 18.4795 12.6837 18.5551C12.4597 18.6308 12.2338 18.6686 12.006 18.6686ZM12.0037 11.0241C12.5712 11.0241 13.0567 10.823 13.4602 10.4206C13.8639 10.0185 14.0657 9.53496 14.0657 8.97013C14.0657 8.40029 13.8641 7.91454 13.4607 7.51288C13.0574 7.11121 12.5725 6.91038 12.006 6.91038C11.4378 6.91038 10.9515 7.11121 10.547 7.51288C10.1425 7.91454 9.94023 8.39929 9.94023 8.96713C9.94023 9.53513 10.1422 10.02 10.5462 10.4216C10.9504 10.8233 11.4362 11.0241 12.0037 11.0241Z" fill="#1C1B1F"/>
</g>
</svg>
