<svg width="40" height="40" viewBox="0 0 40 40" fill="none" xmlns="http://www.w3.org/2000/svg">
<mask id="mask0_18_2218" style="mask-type:alpha" maskUnits="userSpaceOnUse" x="0" y="0" width="40" height="40">
<rect width="40" height="40" fill="#D9D9D9"/>
</mask>
<g mask="url(#mask0_18_2218)">
<path d="M20.0002 34.5032L15.1286 36.1536C14.9555 36.2091 14.7909 36.2482 14.6348 36.2707C14.479 36.2932 14.323 36.3044 14.1669 36.3044C13.3636 36.3044 12.6606 36.0212 12.0581 35.4548C11.4554 34.8887 11.154 34.1676 11.154 33.2915V24.8494L6.56439 17.4228C6.40828 17.1664 6.29397 16.9057 6.22147 16.6407C6.14869 16.3759 6.1123 16.1068 6.1123 15.8332C6.1123 15.5596 6.14869 15.2904 6.22147 15.0257C6.29397 14.7607 6.40828 14.5 6.56439 14.2436L11.9106 5.58984C12.184 5.13234 12.5466 4.78081 12.9986 4.53525C13.4505 4.28942 13.9415 4.1665 14.4715 4.1665H25.529C26.059 4.1665 26.5499 4.28942 27.0019 4.53525C27.4538 4.78081 27.8165 5.13234 28.0898 5.58984L33.4361 14.2436C33.5922 14.5 33.7065 14.7607 33.779 15.0257C33.8518 15.2904 33.8881 15.5596 33.8881 15.8332C33.8881 16.1068 33.8518 16.3759 33.779 16.6407C33.7065 16.9057 33.5922 17.1664 33.4361 17.4228L28.8465 24.8494V33.2915C28.8465 34.1676 28.5451 34.8887 27.9423 35.4548C27.3398 36.0212 26.6369 36.3044 25.8336 36.3044C25.6774 36.3044 25.5215 36.2932 25.3656 36.2707C25.2095 36.2482 25.0449 36.2091 24.8719 36.1536L20.0002 34.5032ZM14.4715 24.9998H25.529C25.6145 24.9998 25.6947 24.9784 25.7694 24.9357C25.8441 24.8929 25.9083 24.8341 25.9619 24.7594L31.324 16.1057C31.3773 16.0201 31.404 15.9293 31.404 15.8332C31.404 15.7371 31.3773 15.6462 31.324 15.5607L25.9619 6.90692C25.9083 6.8322 25.8441 6.77345 25.7694 6.73067C25.6947 6.68789 25.6145 6.6665 25.529 6.6665H14.4715C14.3859 6.6665 14.3058 6.68789 14.2311 6.73067C14.1563 6.77345 14.0922 6.8322 14.0386 6.90692L8.67647 15.5607C8.62314 15.6462 8.59647 15.7371 8.59647 15.8332C8.59647 15.9293 8.62314 16.0201 8.67647 16.1057L14.0386 24.7594C14.0922 24.8341 14.1563 24.8929 14.2311 24.9357C14.3058 24.9784 14.3859 24.9998 14.4715 24.9998ZM18.2502 18.5094L24.4298 12.2882C24.6606 12.0404 24.9463 11.9208 25.2869 11.9294C25.6277 11.938 25.9222 12.0576 26.1702 12.2882C26.4286 12.5362 26.5594 12.8333 26.5627 13.1794C26.5658 13.5255 26.4434 13.8225 26.1956 14.0703L19.3048 20.9773C19.0034 21.2787 18.6519 21.4294 18.2502 21.4294C17.8486 21.4294 17.497 21.2787 17.1956 20.9773L13.8302 17.6282C13.5719 17.3801 13.4427 17.0857 13.4427 16.7448C13.4427 16.4043 13.5719 16.1047 13.8302 15.8461C14.0888 15.5875 14.3859 15.4582 14.7215 15.4582C15.0568 15.4582 15.3537 15.5875 15.6123 15.8461L18.2502 18.5094Z" fill="#0050FF"/>
</g>
</svg>
