<svg width="40" height="40" viewBox="0 0 40 40" fill="none" xmlns="http://www.w3.org/2000/svg">
<mask id="mask0_18_2213" style="mask-type:alpha" maskUnits="userSpaceOnUse" x="0" y="0" width="40" height="40">
<rect width="40" height="40" fill="#D9D9D9"/>
</mask>
<g mask="url(#mask0_18_2213)">
<path d="M34.4873 31.8332C34.3506 32.0468 34.1237 32.168 33.8065 32.1969C33.489 32.2258 33.2041 32.1141 32.9519 31.8619L29.6156 28.5253H13.3336C12.5227 28.5253 11.8286 28.2365 11.2511 27.659C10.6736 27.0818 10.3848 26.3876 10.3848 25.5765V24.5511H28.5261C29.3544 24.5511 30.0636 24.2561 30.6536 23.6661C31.2436 23.0761 31.5386 22.3668 31.5386 21.5382V9.99984H32.5644C33.3752 9.99984 34.0694 10.2886 34.6469 10.8661C35.2244 11.4436 35.5131 12.1378 35.5131 12.9486V30.7819C35.5131 31.0894 35.4105 31.3415 35.2052 31.5382C35.0002 31.7348 34.7609 31.8332 34.4873 31.8332ZM5.98855 25.0061C5.60105 25.0061 5.25397 24.8651 4.9473 24.5832C4.64064 24.3009 4.4873 23.9289 4.4873 23.4669V7.17942C4.4873 6.35081 4.7823 5.6415 5.3723 5.0515C5.9623 4.4615 6.67161 4.1665 7.50022 4.1665H25.1927C26.0211 4.1665 26.7302 4.4615 27.3202 5.0515C27.9102 5.6415 28.2052 6.35081 28.2052 7.17942V18.2048C28.2052 19.0334 27.9102 19.7428 27.3202 20.3328C26.7302 20.9228 26.0211 21.2178 25.1927 21.2178H10.3848L7.04855 24.5544C6.89244 24.7103 6.72522 24.8246 6.54689 24.8973C6.36828 24.9698 6.18217 25.0061 5.98855 25.0061Z" fill="#0050FF"/>
</g>
</svg>
