<svg width="40" height="40" viewBox="0 0 40 40" fill="none" xmlns="http://www.w3.org/2000/svg">
<mask id="mask0_18_2228" style="mask-type:alpha" maskUnits="userSpaceOnUse" x="0" y="0" width="40" height="40">
<rect width="40" height="40" fill="#D9D9D9"/>
</mask>
<g mask="url(#mask0_18_2228)">
<path d="M19.0383 29.3748V30.3203C19.0383 30.5125 19.1106 30.6808 19.255 30.8253C19.3992 30.9694 19.5674 31.0415 19.7596 31.0415H20.7854C20.9862 31.0415 21.1619 30.9662 21.3125 30.8157C21.4631 30.6648 21.5383 30.489 21.5383 30.2882V29.3748H23.6217C23.9758 29.3748 24.2728 29.255 24.5125 29.0153C24.7519 28.7758 24.8717 28.479 24.8717 28.1248V23.1248C24.8717 22.7707 24.7519 22.4739 24.5125 22.2344C24.2728 21.9947 23.9758 21.8748 23.6217 21.8748H18.205V19.3748H23.6217C23.9758 19.3748 24.2728 19.255 24.5125 19.0153C24.7519 18.7755 24.8717 18.4786 24.8717 18.1244C24.8717 17.77 24.7519 17.4732 24.5125 17.234C24.2728 16.9946 23.9758 16.8748 23.6217 16.8748H21.5383V15.9294C21.5383 15.7369 21.4662 15.5686 21.3221 15.4244C21.1779 15.2803 21.0097 15.2082 20.8175 15.2082H19.7917C19.5908 15.2082 19.4151 15.2834 19.2646 15.434C19.1138 15.5848 19.0383 15.7607 19.0383 15.9615V16.8748H16.955C16.6008 16.8748 16.304 16.9947 16.0646 17.2344C15.8249 17.4739 15.705 17.7707 15.705 18.1248V23.1248C15.705 23.479 15.8249 23.7758 16.0646 24.0153C16.304 24.255 16.6008 24.3748 16.955 24.3748H22.3717V26.8748H16.955C16.6008 26.8748 16.304 26.9947 16.0646 27.2344C15.8249 27.4741 15.705 27.7711 15.705 28.1253C15.705 28.4797 15.8249 28.7765 16.0646 29.0157C16.304 29.2551 16.6008 29.3748 16.955 29.3748H19.0383ZM10.5129 35.8332C9.67097 35.8332 8.95833 35.5415 8.375 34.9582C7.79167 34.3748 7.5 33.6622 7.5 32.8203V7.17942C7.5 6.33748 7.79167 5.62484 8.375 5.0415C8.95833 4.45817 9.67097 4.1665 10.5129 4.1665H24.7754L32.5 11.8911V32.8203C32.5 33.6622 32.2083 34.3748 31.625 34.9582C31.0417 35.5415 30.329 35.8332 29.4871 35.8332H10.5129ZM10.5129 33.3332H29.4871C29.6154 33.3332 29.7329 33.2797 29.8396 33.1728C29.9465 33.0661 30 32.9486 30 32.8203V13.1407H25.0321C24.6051 13.1407 24.2474 12.9964 23.9588 12.7078C23.6701 12.4191 23.5258 12.0614 23.5258 11.6344V6.6665H10.5129C10.3846 6.6665 10.2671 6.71998 10.1604 6.82692C10.0535 6.93359 10 7.05109 10 7.17942V32.8203C10 32.9486 10.0535 33.0661 10.1604 33.1728C10.2671 33.2797 10.3846 33.3332 10.5129 33.3332Z" fill="#0050FF"/>
</g>
</svg>
