<svg width="25" height="24" viewBox="0 0 25 24" fill="none" xmlns="http://www.w3.org/2000/svg">
<mask id="mask0_18_2201" style="mask-type:alpha" maskUnits="userSpaceOnUse" x="0" y="0" width="25" height="24">
<rect x="0.666016" width="24" height="24" fill="#D9D9D9"/>
</mask>
<g mask="url(#mask0_18_2201)">
<path d="M6.66525 12.0482C7.12242 10.9006 7.66917 9.7984 8.3055 8.74173C8.94167 7.68523 9.659 6.68507 10.4575 5.74123L9.12775 5.46623C8.75058 5.39157 8.38175 5.41023 8.02125 5.52223C7.66075 5.63423 7.34583 5.82482 7.0765 6.09398L3.9805 9.19023C3.6985 9.47207 3.59167 9.8109 3.66 10.2067C3.72833 10.6026 3.94908 10.8792 4.32225 11.0365L6.66525 12.0482ZM21.712 2.04723C19.9333 1.99173 18.2412 2.3394 16.6355 3.09023C15.03 3.8409 13.5983 4.84523 12.3403 6.10323C11.5163 6.92707 10.7912 7.81665 10.165 8.77198C9.53867 9.72732 8.99058 10.7336 8.52075 11.7907C8.42142 12.0352 8.37475 12.286 8.38075 12.543C8.38675 12.7998 8.483 13.0216 8.6695 13.2082L11.7825 16.3212C11.9692 16.5077 12.1909 16.604 12.4478 16.61C12.7048 16.616 12.9555 16.5674 13.2 16.4642C14.2533 15.9902 15.2586 15.4411 16.2158 14.8167C17.1731 14.1926 18.0637 13.4685 18.8875 12.6445C20.1455 11.3865 21.1498 9.95573 21.9005 8.35223C22.6513 6.74857 22.999 5.0574 22.9435 3.27873C22.9435 3.12557 22.9072 2.97432 22.8345 2.82498C22.7618 2.67565 22.6695 2.54507 22.5575 2.43323C22.4457 2.32123 22.3151 2.2289 22.1658 2.15623C22.0164 2.08357 21.8652 2.04723 21.712 2.04723ZM15.35 9.63473C14.9747 9.2594 14.787 8.79957 14.787 8.25523C14.787 7.71073 14.9747 7.25082 15.35 6.87548C15.7253 6.50015 16.1862 6.31248 16.7325 6.31248C17.279 6.31248 17.7399 6.50015 18.1152 6.87548C18.4906 7.25082 18.6783 7.71073 18.6783 8.25523C18.6783 8.79957 18.4906 9.2594 18.1152 9.63473C17.7399 10.0101 17.279 10.1977 16.7325 10.1977C16.1862 10.1977 15.7253 10.0101 15.35 9.63473ZM12.9425 18.3195L13.9482 20.6685C14.1056 21.0457 14.3822 21.2716 14.778 21.3462C15.1738 21.4209 15.5147 21.3152 15.8005 21.0292L18.8967 17.9332C19.1659 17.6639 19.3565 17.3458 19.4685 16.979C19.5805 16.6122 19.5992 16.2402 19.5245 15.863L19.2685 14.5332C18.312 15.3317 17.3087 16.0481 16.2585 16.6822C15.2083 17.3166 14.103 17.8623 12.9425 18.3195ZM4.45875 16.062C5.08192 15.4388 5.83408 15.1241 6.71525 15.1177C7.59642 15.1114 8.34858 15.4198 8.97175 16.043C9.59492 16.6662 9.9065 17.4183 9.9065 18.2995C9.9065 19.1807 9.59492 19.9328 8.97175 20.556C8.13192 21.3958 7.13425 21.8967 5.97875 22.0587C4.82342 22.2207 3.66383 22.3727 2.5 22.5147C2.642 21.3509 2.79717 20.1912 2.9655 19.0357C3.13383 17.8804 3.63158 16.8892 4.45875 16.062Z" fill="#D32F2F"/>
</g>
</svg>
