<svg width="40" height="40" viewBox="0 0 40 40" fill="none" xmlns="http://www.w3.org/2000/svg">
<mask id="mask0_1_3287" style="mask-type:alpha" maskUnits="userSpaceOnUse" x="0" y="0" width="40" height="40">
<rect width="40" height="40" fill="#D9D9D9"/>
</mask>
<g mask="url(#mask0_1_3287)">
<path d="M11.667 36.6667C10.7503 36.6667 9.9656 36.3403 9.31283 35.6875C8.66005 35.0348 8.33366 34.25 8.33366 33.3334C8.33366 32.4167 8.66005 31.632 9.31283 30.9792C9.9656 30.3264 10.7503 30 11.667 30C12.5837 30 13.3684 30.3264 14.0212 30.9792C14.6739 31.632 15.0003 32.4167 15.0003 33.3334C15.0003 34.25 14.6739 35.0348 14.0212 35.6875C13.3684 36.3403 12.5837 36.6667 11.667 36.6667ZM28.3337 36.6667C27.417 36.6667 26.6323 36.3403 25.9795 35.6875C25.3267 35.0348 25.0003 34.25 25.0003 33.3334C25.0003 32.4167 25.3267 31.632 25.9795 30.9792C26.6323 30.3264 27.417 30 28.3337 30C29.2503 30 30.035 30.3264 30.6878 30.9792C31.3406 31.632 31.667 32.4167 31.667 33.3334C31.667 34.25 31.3406 35.0348 30.6878 35.6875C30.035 36.3403 29.2503 36.6667 28.3337 36.6667ZM10.2503 10L14.2503 18.3334H25.917L30.5003 10H10.2503ZM8.66699 6.66671H33.2503C33.8892 6.66671 34.3753 6.95143 34.7087 7.52087C35.042 8.09032 35.0559 8.66671 34.7503 9.25004L28.8337 19.9167C28.5281 20.4723 28.1184 20.9028 27.6045 21.2084C27.0906 21.5139 26.5281 21.6667 25.917 21.6667H13.5003L11.667 25H30.0003C30.4725 25 30.8684 25.1598 31.1878 25.4792C31.5073 25.7987 31.667 26.1945 31.667 26.6667C31.667 27.1389 31.5073 27.5348 31.1878 27.8542C30.8684 28.1737 30.4725 28.3334 30.0003 28.3334H11.667C10.417 28.3334 9.47255 27.7848 8.83366 26.6875C8.19477 25.5903 8.16699 24.5 8.75033 23.4167L11.0003 19.3334L5.00033 6.66671H3.33366C2.86144 6.66671 2.4656 6.50698 2.14616 6.18754C1.82671 5.8681 1.66699 5.47226 1.66699 5.00004C1.66699 4.52782 1.82671 4.13199 2.14616 3.81254C2.4656 3.4931 2.86144 3.33337 3.33366 3.33337H6.04199C6.34755 3.33337 6.63921 3.41671 6.91699 3.58337C7.19477 3.75004 7.4031 3.98615 7.54199 4.29171L8.66699 6.66671Z" fill="black"/>
</g>
</svg>
